<svg xmlns="http://www.w3.org/2000/svg" xmlns:xlink="http://www.w3.org/1999/xlink" width="1360" height="650" viewBox="0 0 1422.544 1080"><defs><clipPath id="a"><rect width="1422.544" height="1080" fill="none"/></clipPath></defs><g opacity="0.05" clip-path="url(#a)"><path d="M711.272,1079.693l-.666.307v-.613L588.135,1023s-16.96-11.956-19.741-28.359c.278.277-2.155-12.721,24.745-28.916S676,929.86,676,929.86s20.575-6.118,29.472-6.673c3.152-.2,4.883-.254,5.8-.246.921-.008,2.652.049,5.8.246,8.9.555,29.472,6.673,29.472,6.673S802.5,949.531,829.4,965.727s24.467,29.193,24.745,28.916c-2.78,16.4-19.741,28.359-19.741,28.359l-122.47,56.384V1080Zm557.454-21.626c-27.873-40.261-83.619-60.908-82.586-62.973,81.771-63.6,99.374-116.34,100.112-117.837-74.333,67.94-206.442,85.834-203.345,84.8s-101.169-13.421-102.2-15.485c177.835-33.535,308.656-135.091,310.732-136.288-8.259-121.795-16.516-141.41-15.484-141.41-25.245-163.584-120.616-350.872-123.806-358.012,21.653,60.961,43.283,175.285,42.252,172.306,30.969,132.254,17.55,277.583,17.55,275.518C1159.3,813.4,1056.065,854.7,1056.065,852.632c84.652-78.457,97.04-119.75,96.007-119.75,10.323-75.361,4.129-161.045,5.162-160.012-9.291-196.144-69.167-277.7-69.167-278.73-53.682-102.2-189.949-180.658-189.949-179.627,30.969,24.776,68.3,67.1,67.1,66.069,48.52,46.456,90.845,144.527,90.845,144.527s-60.907,18.582-59.876,16.518C981.737,294.14,910.506,232.2,910.506,232.2l26.84,86.715c5.162,39.229-26.84,55.747-26.84,55.747l-52.018,17.493L820,521.655l61.085-25.045s73.913-1.833,78.8-3.666,15.271-9.773,15.271-9.773,48.257-57.42,48.257-58.031c6.108,4.276,14.66,15.271,14.049,16.493,11.607,36.651,4.276,47.036,4.276,47.036l-22.6,51.922L932.4,589.459l161.264-54.366s28.1-90.711,28.1-86.741v15.882s6.719,67.193-5.5,125.224-37.262,100.789-49.479,120.948-28.71,29.932-47.646,28.71-31.763-25.656-31.763-25.656l86.129-126.445s-20.769,20-28.71,26.266-32.375,25.656-31.764,25.045c-43.37,29.932-84.908-2.444-84.908-2.444l-87.351-86.129L956.835,726.9l30.542,129.963s-97.737,74.672-106.288,76.5-31.152,0-31.152,0L711.272,877.5,572.607,933.367s-22.6,1.833-31.152,0-106.289-76.5-106.289-76.5L465.708,726.9,581.77,549.754l-87.352,86.129s-41.537,32.376-84.907,2.444c.611.611-23.824-18.783-31.764-25.045s-28.71-26.266-28.71-26.266l86.129,126.445s-12.828,24.434-31.763,25.656-35.43-8.551-47.646-28.71-37.263-62.918-49.479-120.948-5.5-125.224-5.5-125.224V448.353c0-3.97,28.1,86.741,28.1,86.741l161.264,54.366L403.4,540.591l-22.6-51.922s-7.331-10.385,4.276-47.036c-.611-1.222,7.941-12.218,14.049-16.493,0,.611,48.257,58.031,48.257,58.031s10.384,7.94,15.27,9.773,78.8,3.666,78.8,3.666l61.085,25.045-38.483-129.5-52.018-17.493s-32-16.518-26.841-55.747L512.038,232.2s-71.231,61.94-85.684,109.427c1.032,2.064-59.876-16.518-59.876-16.518s42.326-98.071,90.845-144.527c-1.2,1.033,36.132-41.293,67.1-66.069,0-1.032-136.268,77.425-189.949,179.627,0,1.033-59.876,82.586-69.167,278.73,1.033-1.033-5.162,84.651,5.162,160.012-1.033,0,11.355,41.293,96.007,119.75,0,2.065-103.234-39.228-155.883-93.942,0,2.065-13.42-143.265,17.55-275.518-1.031,2.979,20.6-111.346,42.252-172.307-3.19,7.14-98.561,194.429-123.806,358.012,1.032,0-7.225,19.615-15.484,141.41,2.076,1.2,132.9,102.753,310.732,136.288-1.033,2.064-105.3,14.453-102.2,15.485s-129.011-16.862-203.345-84.8c.738,1.5,18.341,54.237,100.112,117.837,1.033,2.064-54.713,22.711-82.587,62.973,0,1.033-65.037-89.814-75.36-205.435C76.4,851.6,17.851,894.736.135,920.568,2.151,914.7,4.967,780.615,87.748,654.424,85.684,654.424,0,685.394,0,685.394s47.491-128,146.583-250.845c-1.352.433-70.469,13.095-86.707-5.173,1.033,1.033,142.463-55.747,220.92-166.206,0-.313-8.721.322-21.02.958-28.291,1.461-75.519,2.922-79.116-7.151,2.064,2.064,137.3-27.874,190.982-114.589-1.033-1.033-52.649-17.55-52.649-17.55l314.862-105.3,77.419,31.83,77.418-31.83,314.863,105.3s-51.617,16.518-52.649,17.55c53.681,86.715,188.917,116.653,190.982,114.589-3.6,10.073-50.825,8.611-79.117,7.151-12.3-.636-21.019-1.27-21.019-.958,78.457,110.46,219.887,167.239,220.92,166.206-16.238,18.268-85.356,5.606-86.707,5.173,99.092,122.841,146.582,250.845,146.582,250.845s-85.684-30.969-87.748-30.969c82.781,126.191,85.6,260.28,87.612,266.143-17.715-25.832-76.261-68.965-78.321-67.936-10.266,114.972-74.632,205.447-75.355,205.444C1268.728,1058.076,1268.726,1058.073,1268.726,1058.067ZM557.664,705.212,681.13,815.26l30.141,40.7,30.141-40.7L864.88,705.212l-71.128-52.339-81.814,36.975v.6l-.666-.3-.666.3v-.6l-81.814-36.975Zm864.744,215.355.136.2C1422.5,920.767,1422.453,920.7,1422.407,920.568Zm-1422.272,0c-.046.133-.091.2-.136.2Zm711.137-110.63-.667,1.03v-2.061L644.13,706.183H593.853l33.362-29.6,84.057,36.362,84.057-36.362,33.362,29.6H778.413L711.939,808.907v2.061ZM911,409.882c0-1.222,31.153-7.941,47.035-12.828a30.65,30.65,0,0,0,3.985-.568c8.653-1.274,27.416-2.549,14.952,19.5-.611,0-18.937,25.045-40.316,31.764-.611,1.222-34.208,4.276-44.593,11-.61.611-11.606,4.886-11.606,4.886S892.679,425.764,911,409.882ZM530.475,458.75c-10.384-6.719-43.981-9.774-44.592-11-21.38-6.719-39.705-31.764-40.316-31.764-12.464-22.053,6.3-20.778,14.951-19.5a30.674,30.674,0,0,0,3.986.568c15.882,4.887,47.035,11.606,47.035,12.828,18.325,15.882,30.542,53.755,30.542,53.755S531.086,459.361,530.475,458.75ZM1174.282,78.8c0-.155-4.312.434-11.875,1.025-22.288,1.739-72.8,3.478-124.344-13.854,0,.611-4.276-3.665-4.276-3.665L1184.056,0s46.425,104.455,43.981,124.613c0-.611-6.719,48.257-18.325,80.633a.011.011,0,0,1-.008,0C1208.969,205.257,1191.323,125.052,1174.282,78.8ZM212.831,205.246c-11.607-32.375-18.326-81.243-18.326-80.633C192.063,104.455,238.487,0,238.487,0L388.756,62.307s-4.276,4.276-4.276,3.665C332.941,83.3,282.422,81.564,260.135,79.825c-7.561-.591-11.874-1.181-11.874-1.025-17.04,46.252-34.687,126.457-35.422,126.45A.011.011,0,0,1,212.831,205.246Z" transform="translate(0.001)"/></g></svg>